<svg version="1.2" xmlns="http://www.w3.org/2000/svg" viewBox="0 0 100 16" width="100" height="16"><style>.a{fill:#fff}</style><path class="a" d="m94.7 11.5q0-0.2 0-0.4 1.5-0.1 3-0.1 0.2 0 0.3 0c0.5 0 0.9-0.1 1.2-0.5 0.5-0.6 0.2-1.5-0.4-1.8-0.5-0.2-1.1-0.3-1.6-0.5-0.6-0.2-1.2-0.2-1.8-0.6-0.9-0.5-0.9-1.6-0.5-2.2 0.3-0.5 0.8-0.8 1.3-0.8 1.1 0 2.2 0 3.3 0q0 0.3 0 0.5-0.3 0-0.7 0-1.1 0-2.2 0c-0.4 0-0.8 0.1-1.1 0.5-0.4 0.6-0.3 1.3 0.4 1.6 0.6 0.3 1.2 0.4 1.8 0.6 0.5 0.1 1.1 0.2 1.6 0.6 0.3 0.2 0.4 0.5 0.6 0.7q0.1 0.1 0.1 0.1 0.1 0.5 0.1 1.1c-0.1 0-0.1 0-0.1 0-0.2 0.8-0.8 1-1.5 1.1-0.1 0.1-0.3 0.1-0.6 0.1q-1.6 0-3.2 0z"/><path class="a" d="m94.2 5c0 0.2-0.1 0.1-0.2 0.1-0.4 0.1-0.7 0.1-1.1 0.2-0.6 0.3-1 0.8-1.2 1.5q-0.2 0.5-0.2 1.1 0 1.6 0 3.2c0 0.5 0 0.5-0.6 0.4q0-3.4 0-6.9 0.3 0 0.6 0c0 0.4 0 0.9 0 1.4 0.3-0.6 0.7-0.9 1.1-1.2 0.5-0.2 1-0.2 1.6-0.2q0 0.2 0 0.4z"/><path class="a" d="m87.6 4.8c0.7 0.3 1.2 0.7 1.6 1.4q-2.5 1.6-4.9 3.3-0.2-0.2-0.4-0.4 2.2-1.5 4.4-3c-0.6-0.9-2.1-1.4-3.4-0.8-1.4 0.6-2 2-1.7 3.3 0.3 1.7 1.6 2.6 3 2.5 1.4 0 2.8-1.1 2.9-2.9 0.2 0 0.4 0 0.7 0-0.2 0.6-0.2 1.1-0.5 1.5-0.4 0.9-1.2 1.6-2.2 1.9q-1.7 0.4-3.2-0.6-0.9-0.7-1.2-1.9c-0.4-1.3-0.1-2.5 0.8-3.5 0.9-0.9 1.9-1.2 3.1-1.1 0.3 0 0.6 0.2 1 0.3z"/><path class="a" d="m81.1 11.5q-0.3 0-0.6 0.1 0-0.2 0-0.3 0-2 0-4c0-0.6-0.2-1.2-0.6-1.7-0.8-0.7-1.9-0.8-2.8-0.2-0.6 0.4-1 1.1-1 1.9q0 2.1 0 4.2 0 0.1 0 0.1c-0.6 0-0.6 0-0.6-0.5q0-1.9 0-3.8c0.1-1.1 0.5-2 1.5-2.5 0.7-0.4 1.4-0.4 2.1-0.2 1.1 0.3 1.7 1 2 2.1 0 0.1 0 0.2 0 0.3q0 2.3 0 4.5z"/><path class="a" d="m69.6 14.8c-0.1 0-0.3 0-0.4-0.1q-0.4-0.1-0.9-0.2 0.1-0.2 0.2-0.5 1 0.4 2.1 0.3c1.3-0.1 2.3-0.6 2.5-2.1q0.1-0.5 0.1-1.1 0.1-1.5 0-3.1c0-1.3-0.6-2.3-1.8-2.8-0.9-0.4-1.9-0.2-2.6 0.4q-0.9 0.8-1.1 2c-0.1 0.9 0.1 1.8 0.7 2.5 0.5 0.6 1.1 1 1.8 1q1 0.2 1.8-0.4 0.3-0.3 0.6-0.5c0.1 0.6 0.1 0.6-0.4 0.9-1.2 0.8-2.6 0.8-3.7-0.1q-1.1-0.8-1.3-2.1c-0.2-1.1-0.1-2.1 0.6-3.1q0.9-1.2 2.5-1.3 1.5-0.1 2.5 1c0.5 0.5 0.9 1.2 1 2 0 1.1 0 2.2 0 3.3 0 0.7 0 1.3-0.2 1.9-0.4 1.2-1.3 1.9-2.5 2.1 0 0-0.1 0-0.4 0-0.4 0.1-0.5 0.1-1.1 0z"/><path class="a" d="m65.2 11.5q-0.2 0-0.5 0.1c0-2.4 0-4.7 0-7q0.2 0 0.5 0 0 3.5 0 6.9z"/><path class="a" d="m64.7 3q-0.3-0.5 0-0.7c0.2-0.1 0.5 0 0.6 0.1 0.2 0.2 0.1 0.4 0 0.6-0.1 0.1-0.4 0.2-0.6 0z"/><path class="a" d="m61.4 6.7q0-2.7 0-5.3 0 0 0 0 0.3 0 0.6 0 0 5 0 10.1-0.3 0-0.6 0 0-2.3 0-4.8z"/><path class="a" d="m58.7 7.8c-0.1-1.2-0.9-2.3-2.1-2.7q-1.4-0.4-2.4 0.6-1.1 1-1.1 2.5c0 1.3 1 2.7 2.4 2.9q1.1 0.2 2-0.5 0.3-0.2 0.5-0.4c0.1 0.5 0.1 0.6-0.4 0.9-1.1 0.8-2.6 0.8-3.7-0.1-1.1-0.9-1.5-2.1-1.4-3.4 0.2-1.4 1-2.6 2.5-3 1-0.3 2-0.1 2.8 0.5 0.7 0.5 1.1 1.3 1.4 2.1q0 0.3 0 0.6 0 1.6 0 3.3c0 0.5 0.2 0.5-0.5 0.4q0-1.7 0-3.4 0-0.1 0-0.3z"/><path class="a" d="m49.1 11.5q0-0.1 0-0.3c0-1 0-2.1 0-3.2 0-0.5-0.2-1.1-0.7-1.4-0.7-0.3-1.4-0.3-2 0.2-0.6 0.5-0.7 1.4-0.3 2q0.4 0.8 1.2 0.7c0.4 0 0.8 0 1.2-0.1q0 0.9 0 1.8c0 0.1-0.1 0.2-0.1 0.2-0.2 0.1-0.4 0.2-0.6 0.2-1.3 0.3-2.4 0-3.3-1q-0.8-0.8-0.9-2-0.3-1.5 0.6-2.7 0.8-1.2 2.3-1.5 1.3-0.3 2.5 0.1c1.1 0.4 1.9 1 2.3 2.2q0.1 0.5 0.1 1 0.1 1.9 0 3.8-1.2 0-2.3 0z"/><path class="a" d="m42.9 6.6c-0.3 0-0.7 0.1-1 0.1-0.5 0.1-0.7 0.5-0.7 1-0.1 1.3 0 2.5-0.1 3.8q-1.2 0-2.3 0 0-3.5 0-7 1 0 2 0 0 0.5 0 1.1 0 0 0.1 0c0.3-1 1.1-1.2 2-1.1q0 1.1 0 2.1z"/><path class="a" d="m33.7 4.3c0.6-0.1 1.1 0 1.6 0.2q2.1 0.7 2.5 2.9c0.2 1.1-0.1 2.1-0.8 2.9q-0.8 1.1-2.2 1.4c-0.9 0.1-1.8-0.1-2.6-0.6-0.9-0.7-1.5-1.7-1.6-2.9-0.1-1.6 0.6-2.7 1.9-3.5 0.4-0.2 0.8-0.2 1.2-0.4zm0.8 5.1c0.6 0 1.3-0.9 1.1-1.7-0.2-0.8-0.8-1.1-1.3-1.2-0.9-0.1-1.5 0.8-1.5 1.5 0 0.8 0.8 1.6 1.7 1.4z"/><path class="a" d=""/><path class="a" d="m23.4 11.5q0-2.1 0-4.2c0-0.2-0.1-0.5-0.4-0.7-0.3-0.1-0.6-0.2-0.8 0.1-0.2 0.1-0.3 0.4-0.3 0.6 0 1.4 0 2.8-0.1 4.2q-1.1 0-2.2 0-0.1-0.1-0.1-0.3c0-1.4 0-2.8 0-4.3 0-0.9 0.5-1.7 1.3-2.2q0.7-0.4 1.6-0.4c0.7-0.1 1.4 0.3 1.9 0.8q0.1 0.1 0.1 0.1c0.4-0.2 0.7-0.5 1.1-0.7 0.7-0.4 1.5-0.3 2.3 0 0.7 0.3 1.2 0.8 1.5 1.5 0.1 0.3 0.2 0.5 0.2 0.8q0 2.3 0 4.7-1.2 0-2.3 0 0-0.1 0-0.3 0-1.9 0-3.9c0-0.2-0.1-0.5-0.3-0.6q-0.4-0.3-0.9-0.1c-0.3 0.2-0.3 0.5-0.3 0.8 0 1.4 0 2.7-0.1 4.1q-1.1 0-2.2 0z"/><path class="a" d="m13.9 6.4c-0.7 0.9-0.8 2 0 2.8q0.8 0.9 2 0.2c0.5-0.3 0.8-0.8 1.1-1.3q0.1 0 0.1 0 0.8 0.4 1.6 0.8c-0.5 1-1.1 1.8-2 2.3q-0.9 0.5-2 0.5c-0.8 0-1.5-0.3-2.1-0.8-0.7-0.5-1.2-1.2-1.4-2.1-0.3-1.1 0-2 0.6-2.9 0.5-0.8 1.3-1.3 2.2-1.5 1.3-0.3 2.7 0 3.6 1.3q0.3 0.4 0.7 0.8c-1.2 0.8-2.4 1.6-3.6 2.5q-0.4-0.7-0.9-1.4 1-0.7 1.9-1.3c-0.7-0.4-1.3-0.3-1.8 0.1z"/><path class="a" d="m3.9 7.3c0-0.7-0.4-0.9-1-0.7-0.3 0-0.4 0.3-0.5 0.5q0 2.3 0 4.4 0 0 0 0-1.2 0-2.3 0 0 0 0 0 0-2.5 0-5c0-0.1 0.1-0.1 0.1-0.1 0.2-1.2 1.1-1.8 2.1-2.1 0.9-0.2 1.6 0 2.3 0.5 0.2 0.2 0.3 0.3 0.4 0.4 0.5-0.3 0.9-0.6 1.4-0.8 1-0.3 2 0 2.8 0.6 0.4 0.4 0.7 0.8 0.8 1.4q0 0.1 0 0.3 0.1 2.3 0 4.8-1.1 0-2.2 0 0-2.1-0.1-4.1c0-0.4-0.1-0.7-0.4-0.8-0.6-0.2-1 0.1-1 0.7q0 2.1-0.1 4.2-1.1 0-2.2 0 0 0 0 0 0-2 0-3.9-0.1-0.2-0.1-0.3z"/></svg>