<svg version="1.2" xmlns="http://www.w3.org/2000/svg" viewBox="139.00000000000003 33.999999999999986 519 725.9999999999998" width="519" height="727"><style>.a{fill:none;stroke:#fff;stroke-linecap:round;stroke-linejoin:round;stroke-width:50}</style><path class="a" d="m166.7 500c0 61.9 24.6 121.2 68.3 165 43.8 43.8 103.1 68.3 165 68.3 61.9 0 121.2-24.5 165-68.3 43.8-43.8 68.3-103.1 68.3-165v-200c0-61.9-24.5-121.2-68.3-165-43.8-43.7-103.1-68.3-165-68.3-61.9 0-121.2 24.6-165 68.3-43.7 43.8-68.3 103.1-68.3 165z"/><path class="a" d="m400 200v266.7"/><path class="a" d="m500 366.7l-100 100-100-100"/></svg>